<svg version="1.1" preserveAspectRatio="none" xmlns="http://www.w3.org/2000/svg" width="500" height="500" viewBox="0 0 500 500"><rect width="100%" height="100%" fill="#F5F5F5" fill-opacity="1"/><svg viewBox="159.9407 164.6011 475.3235 112" width="333" height="78.46445631238514" x="83.5px" y="210.7678px" xmlns="http://www.w3.org/2000/svg" xmlns:xlink="http://www.w3.org/1999/xlink" preserveAspectRatio="none"><defs></defs><style>.companyName {fill:#08376B;fill-opacity:1;}.icon1 {fill:#35C0ED;fill-opacity:1;}.icon2 {fill:#9AEBA6;fill-opacity:1;}.icon3 {fill:#2F90B0;fill-opacity:1;}.icon3-str {stroke:#2F90B0;stroke-opacity:1;}.shapeStroke-str {stroke:#08376B;stroke-opacity:1;}.text {fill:#08376B;fill-opacity:1;}</style><g opacity="1" transform="rotate(0 159.9407 179.6011)">
<svg width="81.0931" height="82" x="159.9407" y="179.6011" version="1.1" preserveAspectRatio="none" viewBox="20.884563446044922 19.999561309814453 158.2308807373047 160.0004425048828">
  <g transform="matrix(1 0 0 1 0 0)"><g><path d="M91.12 88.12h17.71c.37 0 .74-.07 1.09-.21s.66-.35.92-.61.47-.58.62-.92c.14-.34.22-.71.22-1.09V69c0-2.64-1.05-5.18-2.92-7.05a9.977 9.977 0 0 0-7.05-2.92h-3.52a9.962 9.962 0 0 0-6.98 2.96A9.965 9.965 0 0 0 88.33 69v16.3c.01.74.31 1.45.83 1.97.51.53 1.22.83 1.96.85zm1.76-19.14c0-1.4.56-2.74 1.55-3.73.99-.99 2.33-1.55 3.73-1.55h3.52c1.4 0 2.74.56 3.73 1.55.99.99 1.55 2.33 1.55 3.73v14.45H92.88V68.98z" data-color="1" class="icon1"></path><path d="M120.43 113.13H79.55a6.707 6.707 0 0 0-6.7 6.71v26.69c0 1.78.71 3.48 1.97 4.73s2.96 1.96 4.73 1.97h40.88c1.78 0 3.48-.71 4.74-1.96a6.699 6.699 0 0 0 1.97-4.74v-26.69c0-1.78-.71-3.49-1.97-4.74a6.682 6.682 0 0 0-4.74-1.97zm2.03 6.71v10.99h-20.05v-13.01h18.09c.52.02 1.02.24 1.38.62.37.38.57.88.58 1.4zm-42.91-2.02h18.09v13.01h-20.1v-10.99c0-.53.21-1.05.59-1.42.38-.38.89-.6 1.42-.6zm-2.01 28.72v-11.01h20.08v13.01H79.55c-.53 0-1.04-.21-1.42-.59-.37-.37-.59-.88-.59-1.41zm42.89 2H102.3v-13.01h20.15v11.01a2.016 2.016 0 0 1-2.02 2z" data-color="1" class="icon1"></path><path d="M157.4 175.23V95.6l17.58 21.38c.4.46.97.75 1.58.79.61.05 1.22-.14 1.69-.53s.78-.95.85-1.55c.07-.61-.1-1.22-.47-1.7l-26.59-32.32V42.63a7.029 7.029 0 0 0-2.35-4.83 6.984 6.984 0 0 0-5.07-1.76h-7.61a7.027 7.027 0 0 0-7.42 6.59v11.66l-27.17-33.18A3.101 3.101 0 0 0 99.99 20c-.46 0-.92.1-1.34.29-.42.19-.79.48-1.09.83l-76.19 92.86c-.37.49-.54 1.1-.47 1.7.07.61.37 1.16.85 1.55.47.39 1.08.58 1.69.53.61-.05 1.18-.33 1.58-.79L42.63 95.6V180h114.81l-.04-4.77zm-23.12-132.6c0-1 1.28-1.88 2.73-1.88h7.61c1.48 0 2.73.86 2.73 1.88v33.3L134.28 60V42.63zm-87.06 132.6V89.86l52.75-64.31 52.75 64.31v85.37H47.22z" data-color="1" class="icon1"></path></g></g>
</svg>
</g><g opacity="1" transform="rotate(0 279.0338 241.6011)">
<svg width="196.4239" height="20" x="279.0338" y="241.6011" version="1.1" preserveAspectRatio="none" viewBox="1.52 -30.88 382.32 38.92">
  <g transform="matrix(1 0 0 1 0 0)" class="text"><path id="id-6izo4zJp19" d="M19.20-29.68L24.20-29.68L24.20 0L19.40 0L19.40-2.76Q18.16-1.24 16.34-0.48Q14.52 0.28 12.32 0.28L12.32 0.28Q9.24 0.28 6.78-1.08Q4.32-2.44 2.92-4.94Q1.52-7.44 1.52-10.68L1.52-10.68Q1.52-13.92 2.92-16.40Q4.32-18.88 6.78-20.24Q9.24-21.60 12.32-21.60L12.32-21.60Q14.44-21.60 16.20-20.88Q17.96-20.16 19.20-18.72L19.20-18.72L19.20-29.68ZM12.92-4Q14.72-4 16.16-4.82Q17.60-5.64 18.44-7.16Q19.28-8.68 19.28-10.68L19.28-10.68Q19.28-12.68 18.44-14.20Q17.60-15.72 16.16-16.54Q14.72-17.36 12.92-17.36L12.92-17.36Q11.12-17.36 9.68-16.54Q8.24-15.72 7.40-14.20Q6.56-12.68 6.56-10.68L6.56-10.68Q6.56-8.68 7.40-7.16Q8.24-5.64 9.68-4.82Q11.12-4 12.92-4L12.92-4Z M40.12-21.60Q44.84-21.60 47.34-19.34Q49.84-17.08 49.84-12.52L49.84-12.52L49.84 0L45.12 0L45.12-2.60Q44.20-1.20 42.50-0.46Q40.80 0.28 38.40 0.28L38.40 0.28Q36 0.28 34.20-0.54Q32.40-1.36 31.42-2.82Q30.44-4.28 30.44-6.12L30.44-6.12Q30.44-9 32.58-10.74Q34.72-12.48 39.32-12.48L39.32-12.48L44.84-12.48L44.84-12.80Q44.84-15.04 43.50-16.24Q42.16-17.44 39.52-17.44L39.52-17.44Q37.72-17.44 35.98-16.88Q34.24-16.32 33.04-15.32L33.04-15.32L31.08-18.96Q32.76-20.24 35.12-20.92Q37.48-21.60 40.12-21.60L40.12-21.60ZM39.44-3.36Q41.32-3.36 42.78-4.22Q44.24-5.08 44.84-6.68L44.84-6.68L44.84-9.16L39.68-9.16Q35.36-9.16 35.36-6.32L35.36-6.32Q35.36-4.96 36.44-4.16Q37.52-3.36 39.44-3.36L39.44-3.36Z M57.44 0L57.44-29.68L62.44-29.68L62.44 0L57.44 0Z M78.36-21.60Q83.08-21.60 85.58-19.34Q88.08-17.08 88.08-12.52L88.08-12.52L88.08 0L83.36 0L83.36-2.60Q82.44-1.20 80.74-0.46Q79.04 0.28 76.64 0.28L76.64 0.28Q74.24 0.28 72.44-0.54Q70.64-1.36 69.66-2.82Q68.68-4.28 68.68-6.12L68.68-6.12Q68.68-9 70.82-10.74Q72.96-12.48 77.56-12.48L77.56-12.48L83.08-12.48L83.08-12.80Q83.08-15.04 81.74-16.24Q80.40-17.44 77.76-17.44L77.76-17.44Q75.96-17.44 74.22-16.88Q72.48-16.32 71.28-15.32L71.28-15.32L69.32-18.96Q71-20.24 73.36-20.92Q75.72-21.60 78.36-21.60L78.36-21.60ZM77.68-3.36Q79.56-3.36 81.02-4.22Q82.48-5.08 83.08-6.68L83.08-6.68L83.08-9.16L77.92-9.16Q73.60-9.16 73.60-6.32L73.60-6.32Q73.60-4.96 74.68-4.16Q75.76-3.36 77.68-3.36L77.68-3.36Z M95.68 0L95.68-29.68L100.68-29.68L100.68 0L95.68 0Z M108.44 0L108.44-21.36L113.44-21.36L113.44 0L108.44 0ZM110.96-24.88Q109.60-24.88 108.68-25.74Q107.76-26.60 107.76-27.88L107.76-27.88Q107.76-29.16 108.68-30.02Q109.60-30.88 110.96-30.88L110.96-30.88Q112.32-30.88 113.24-30.06Q114.16-29.24 114.16-28L114.16-28Q114.16-26.68 113.26-25.78Q112.36-24.88 110.96-24.88L110.96-24.88Z M133.44 0L133.44-21.36L138.44-21.36L138.44 0L133.44 0ZM135.96-24.88Q134.60-24.88 133.68-25.74Q132.76-26.60 132.76-27.88L132.76-27.88Q132.76-29.16 133.68-30.02Q134.60-30.88 135.96-30.88L135.96-30.88Q137.32-30.88 138.24-30.06Q139.16-29.24 139.16-28L139.16-28Q139.16-26.68 138.26-25.78Q137.36-24.88 135.96-24.88L135.96-24.88Z M152.80 0.28Q150.20 0.28 147.72-0.40Q145.24-1.08 143.76-2.12L143.76-2.12L145.68-5.92Q147.12-4.96 149.14-4.38Q151.16-3.80 153.12-3.80L153.12-3.80Q157.60-3.80 157.60-6.16L157.60-6.16Q157.60-7.28 156.46-7.72Q155.32-8.16 152.80-8.56L152.80-8.56Q150.16-8.96 148.50-9.48Q146.84-10 145.62-11.30Q144.40-12.60 144.40-14.92L144.40-14.92Q144.40-17.96 146.94-19.78Q149.48-21.60 153.80-21.60L153.80-21.60Q156-21.60 158.20-21.10Q160.40-20.60 161.80-19.76L161.80-19.76L159.88-15.96Q157.16-17.56 153.76-17.56L153.76-17.56Q151.56-17.56 150.42-16.90Q149.28-16.24 149.28-15.16L149.28-15.16Q149.28-13.96 150.50-13.46Q151.72-12.96 154.28-12.52L154.28-12.52Q156.84-12.12 158.48-11.60Q160.12-11.08 161.30-9.84Q162.48-8.60 162.48-6.32L162.48-6.32Q162.48-3.32 159.88-1.52Q157.28 0.28 152.80 0.28L152.80 0.28Z M200.32-10.56Q200.32-10.04 200.24-9.08L200.24-9.08L183.48-9.08Q183.92-6.72 185.78-5.34Q187.64-3.96 190.40-3.96L190.40-3.96Q193.92-3.96 196.20-6.28L196.20-6.28L198.88-3.20Q197.44-1.48 195.24-0.60Q193.04 0.28 190.28 0.28L190.28 0.28Q186.76 0.28 184.08-1.12Q181.40-2.52 179.94-5.02Q178.48-7.52 178.48-10.68L178.48-10.68Q178.48-13.80 179.90-16.30Q181.32-18.80 183.84-20.20Q186.36-21.60 189.52-21.60L189.52-21.60Q192.64-21.60 195.10-20.22Q197.56-18.84 198.94-16.34Q200.32-13.84 200.32-10.56L200.32-10.56ZM189.52-17.60Q187.12-17.60 185.46-16.18Q183.80-14.76 183.44-12.40L183.44-12.40L195.56-12.40Q195.24-14.72 193.60-16.16Q191.96-17.60 189.52-17.60L189.52-17.60Z M221.12-21.36L225.92-21.36L216.76 0L211.60 0L202.44-21.36L207.64-21.36L214.28-5.52L221.12-21.36Z M249.72-10.56Q249.72-10.04 249.64-9.08L249.64-9.08L232.88-9.08Q233.32-6.72 235.18-5.34Q237.04-3.96 239.80-3.96L239.80-3.96Q243.32-3.96 245.60-6.28L245.60-6.28L248.28-3.20Q246.84-1.48 244.64-0.60Q242.44 0.28 239.68 0.28L239.68 0.28Q236.16 0.28 233.48-1.12Q230.80-2.52 229.34-5.02Q227.88-7.52 227.88-10.68L227.88-10.68Q227.88-13.80 229.30-16.30Q230.72-18.80 233.24-20.20Q235.76-21.60 238.92-21.60L238.92-21.60Q242.04-21.60 244.50-20.22Q246.96-18.84 248.34-16.34Q249.72-13.84 249.72-10.56L249.72-10.56ZM238.92-17.60Q236.52-17.60 234.86-16.18Q233.20-14.76 232.84-12.40L232.84-12.40L244.96-12.40Q244.64-14.72 243.00-16.16Q241.36-17.60 238.92-17.60L238.92-17.60Z M260.48-18.24Q262.64-21.60 268.08-21.60L268.08-21.60L268.08-16.84Q267.44-16.96 266.92-16.96L266.92-16.96Q264.00-16.96 262.36-15.26Q260.72-13.56 260.72-10.36L260.72-10.36L260.72 0L255.72 0L255.72-21.36L260.48-21.36L260.48-18.24Z M285.76-4.72L287.16-1.16Q286.28-0.44 285.02-0.08Q283.76 0.28 282.36 0.28L282.36 0.28Q278.84 0.28 276.92-1.56Q275.00-3.40 275.00-6.92L275.00-6.92L275.00-17.20L271.48-17.20L271.48-21.20L275.00-21.20L275.00-26.08L280.00-26.08L280.00-21.20L285.72-21.20L285.72-17.20L280.00-17.20L280.00-7.04Q280.00-5.48 280.76-4.66Q281.52-3.84 282.96-3.84L282.96-3.84Q284.64-3.84 285.76-4.72L285.76-4.72Z M304.60-21.60Q308.64-21.60 311.08-19.24Q313.52-16.88 313.52-12.24L313.52-12.24L313.52 0L308.52 0L308.52-11.60Q308.52-14.40 307.20-15.82Q305.88-17.24 303.44-17.24L303.44-17.24Q300.68-17.24 299.08-15.58Q297.48-13.92 297.48-10.80L297.48-10.80L297.48 0L292.48 0L292.48-29.68L297.48-29.68L297.48-18.88Q298.72-20.20 300.54-20.90Q302.36-21.60 304.60-21.60L304.60-21.60Z M321.08 0L321.08-21.36L326.08-21.36L326.08 0L321.08 0ZM323.60-24.88Q322.24-24.88 321.32-25.74Q320.40-26.60 320.40-27.88L320.40-27.88Q320.40-29.16 321.32-30.02Q322.24-30.88 323.60-30.88L323.60-30.88Q324.96-30.88 325.88-30.06Q326.80-29.24 326.80-28L326.80-28Q326.80-26.68 325.90-25.78Q325.00-24.88 323.60-24.88L323.60-24.88Z M345.96-21.60Q350.00-21.60 352.44-19.24Q354.88-16.88 354.88-12.24L354.88-12.24L354.88 0L349.88 0L349.88-11.60Q349.88-14.40 348.56-15.82Q347.24-17.24 344.80-17.24L344.80-17.24Q342.04-17.24 340.44-15.58Q338.84-13.92 338.84-10.80L338.84-10.80L338.84 0L333.84 0L333.84-21.36L338.60-21.36L338.60-18.60Q339.84-20.08 341.72-20.84Q343.60-21.60 345.96-21.60L345.96-21.60Z M379.08-21.36L383.84-21.36L383.84-3.24Q383.84 8.04 372.32 8.04L372.32 8.04Q369.24 8.04 366.48 7.26Q363.72 6.48 361.92 5L361.92 5L364.16 1.24Q365.56 2.40 367.70 3.10Q369.84 3.80 372.04 3.80L372.04 3.80Q375.56 3.80 377.20 2.20Q378.84 0.60 378.84-2.68L378.84-2.68L378.84-3.80Q377.56-2.40 375.72-1.68Q373.88-0.96 371.68-0.96L371.68-0.96Q368.64-0.96 366.18-2.26Q363.72-3.56 362.30-5.92Q360.88-8.28 360.88-11.32L360.88-11.32Q360.88-14.36 362.30-16.70Q363.72-19.04 366.18-20.32Q368.64-21.60 371.68-21.60L371.68-21.60Q374.00-21.60 375.90-20.84Q377.80-20.08 379.08-18.52L379.08-18.52L379.08-21.36ZM372.44-5.20Q375.28-5.20 377.10-6.90Q378.92-8.60 378.92-11.32L378.92-11.32Q378.92-14 377.10-15.68Q375.28-17.36 372.44-17.36L372.44-17.36Q369.56-17.36 367.74-15.68Q365.92-14 365.92-11.32L365.92-11.32Q365.92-8.60 367.74-6.90Q369.56-5.20 372.44-5.20L372.44-5.20Z"/></g>
</svg>
</g><g opacity="1" transform="rotate(0 279.0338 179.6011)">
<svg width="356.2304" height="50" x="279.0338" y="179.6011" version="1.1" preserveAspectRatio="none" viewBox="4.8 -28 202.92 28.48">
  <g transform="matrix(1 0 0 1 0 0)" class="companyName"><path id="id-D6z1nYkh10" d="M8.44 0L8.44-11.68Q9.48-11.40 10.68-11.22Q11.88-11.04 13.32-11.04L13.32-11.04Q15.76-11.04 17.64-11.72Q19.52-12.40 20.78-13.58Q22.04-14.76 22.68-16.30Q23.32-17.84 23.32-19.60L23.32-19.60Q23.32-21.28 22.76-22.82Q22.20-24.36 21.06-25.50Q19.92-26.64 18.20-27.32Q16.48-28 14.16-28L14.16-28L4.80-28L4.80 0L8.44 0ZM8.44-13.32L8.44-26.24L12.64-26.24Q14.32-26.24 15.60-25.64Q16.88-25.04 17.72-24.06Q18.56-23.08 18.98-21.86Q19.40-20.64 19.40-19.44L19.40-19.44Q19.40-18.28 19.02-17.10Q18.64-15.92 17.80-14.96Q16.96-14 15.68-13.40Q14.40-12.80 12.60-12.80L12.60-12.80Q11.36-12.80 10.32-12.90Q9.28-13 8.44-13.32L8.44-13.32Z M35.08-20.44L35.08-20.44Q38-20.44 39.60-19.62Q41.20-18.80 41.94-17.48Q42.68-16.16 42.80-14.44Q42.92-12.72 42.92-10.92L42.92-10.92L42.92 0L39.68 0L39.68-1.96Q38.52-0.84 36.72-0.18Q34.92 0.48 33.12 0.48L33.12 0.48Q31.40 0.48 30.08-0.12Q28.76-0.72 27.88-1.68Q27-2.64 26.56-3.84Q26.12-5.04 26.12-6.28L26.12-6.28Q26.12-7.56 26.60-8.84Q27.08-10.12 28.04-11.14Q29-12.16 30.40-12.80Q31.80-13.44 33.60-13.44L33.60-13.44Q35.40-13.44 37.02-12.74Q38.64-12.04 39.68-10.76L39.68-10.76L39.68-12.48Q39.68-15.76 38.70-17.36Q37.72-18.96 35.12-18.96L35.12-18.96Q34-18.96 33.16-18.68Q32.32-18.40 31.66-17.90Q31-17.40 30.44-16.66Q29.88-15.92 29.32-15L29.32-15L27.24-17.08Q27.80-17.68 28.42-18.28Q29.04-18.88 29.94-19.36Q30.84-19.84 32.08-20.14Q33.32-20.44 35.08-20.44ZM39.68-4.84L39.68-7.92Q39.48-8.40 39.10-9.04Q38.72-9.68 38.12-10.28Q37.52-10.88 36.68-11.30Q35.84-11.72 34.68-11.72L34.68-11.72Q33.52-11.72 32.56-11.26Q31.60-10.80 30.94-10.06Q30.28-9.32 29.92-8.32Q29.56-7.32 29.56-6.24L29.56-6.24Q29.56-4.96 30.02-4.02Q30.48-3.08 31.20-2.42Q31.92-1.76 32.80-1.44Q33.68-1.12 34.48-1.12L34.48-1.12Q35.24-1.12 36.02-1.40Q36.80-1.68 37.50-2.18Q38.20-2.68 38.76-3.36Q39.32-4.04 39.68-4.84L39.68-4.84Z M62.64 0L66.04 0L66.04-12.96Q66.04-13.68 65.92-14.94Q65.80-16.20 65.14-17.42Q64.48-18.64 63.04-19.54Q61.60-20.44 58.96-20.44L58.96-20.44Q57.80-20.48 56.36-19.98Q54.92-19.48 53.52-18.08L53.52-18.08L52.88-17.44L52.72-17.44L52.72-20L49.32-20L49.32 0L52.72 0L52.72-12.36Q52.72-13.92 53.16-15.04Q53.60-16.16 54.36-16.92Q55.12-17.68 56.10-18.04Q57.08-18.40 58.12-18.40L58.12-18.40Q59.80-18.40 60.72-17.74Q61.64-17.08 62.06-16.20Q62.48-15.32 62.56-14.44Q62.64-13.56 62.64-13.16L62.64-13.16L62.64 0Z M90.32 0L90.32-28L86.92-28L86.92-16.72L86.76-16.72Q86.36-17.76 85.70-18.46Q85.04-19.16 84.20-19.60Q83.36-20.04 82.42-20.24Q81.48-20.44 80.52-20.44L80.52-20.44Q78.52-20.44 76.84-19.70Q75.16-18.96 73.94-17.60Q72.72-16.24 72.04-14.32Q71.36-12.40 71.36-10.04L71.36-10.04Q71.36-7.64 72.04-5.70Q72.72-3.76 73.94-2.38Q75.16-1 76.84-0.26Q78.52 0.48 80.52 0.48L80.52 0.48Q85.24 0.48 86.76-3.24L86.76-3.24L86.92-3.24L86.92 0L90.32 0ZM86.92-11.48L86.92-8Q86.92-6.68 86.48-5.50Q86.04-4.32 85.30-3.46Q84.56-2.60 83.54-2.10Q82.52-1.60 81.36-1.60L81.36-1.60Q80.08-1.60 78.96-2.06Q77.84-2.52 77.00-3.52Q76.16-4.52 75.66-6.12Q75.16-7.72 75.16-9.96L75.16-9.96Q75.16-12.24 75.66-13.84Q76.16-15.44 77.02-16.46Q77.88-17.48 79.00-17.94Q80.12-18.40 81.36-18.40L81.36-18.40Q82.48-18.40 83.48-17.94Q84.48-17.48 85.24-16.58Q86.00-15.68 86.46-14.40Q86.92-13.12 86.92-11.48L86.92-11.48Z M104.08-20.44L104.08-20.44Q107.00-20.44 108.60-19.62Q110.20-18.80 110.94-17.48Q111.68-16.16 111.80-14.44Q111.92-12.72 111.92-10.92L111.92-10.92L111.92 0L108.68 0L108.68-1.96Q107.52-0.84 105.72-0.18Q103.92 0.48 102.12 0.48L102.12 0.48Q100.40 0.48 99.08-0.12Q97.76-0.72 96.88-1.68Q96.00-2.64 95.56-3.84Q95.12-5.04 95.12-6.28L95.12-6.28Q95.12-7.56 95.60-8.84Q96.08-10.12 97.04-11.14Q98.00-12.16 99.40-12.80Q100.80-13.44 102.60-13.44L102.60-13.44Q104.40-13.44 106.02-12.74Q107.64-12.04 108.68-10.76L108.68-10.76L108.68-12.48Q108.68-15.76 107.70-17.36Q106.72-18.96 104.12-18.96L104.12-18.96Q103.00-18.96 102.16-18.68Q101.32-18.40 100.66-17.90Q100.00-17.40 99.44-16.66Q98.88-15.92 98.32-15L98.32-15L96.24-17.08Q96.80-17.68 97.42-18.28Q98.04-18.88 98.94-19.36Q99.84-19.84 101.08-20.14Q102.32-20.44 104.08-20.44ZM108.68-4.84L108.68-7.92Q108.48-8.40 108.10-9.04Q107.72-9.68 107.12-10.28Q106.52-10.88 105.68-11.30Q104.84-11.72 103.68-11.72L103.68-11.72Q102.52-11.72 101.56-11.26Q100.60-10.80 99.94-10.06Q99.28-9.32 98.92-8.32Q98.56-7.32 98.56-6.24L98.56-6.24Q98.56-4.96 99.02-4.02Q99.48-3.08 100.20-2.42Q100.92-1.76 101.80-1.44Q102.68-1.12 103.48-1.12L103.48-1.12Q104.24-1.12 105.02-1.40Q105.80-1.68 106.50-2.18Q107.20-2.68 107.76-3.36Q108.32-4.04 108.68-4.84L108.68-4.84Z M130 0L120.32 0L120.32-28L129.52-28Q132.84-28 135.60-26.94Q138.36-25.88 140.34-24.02Q142.32-22.16 143.42-19.60Q144.52-17.04 144.52-14.08L144.52-14.08Q144.52-11 143.38-8.42Q142.24-5.84 140.26-3.96Q138.28-2.08 135.64-1.04Q133 0 130 0L130 0ZM123.96-26.24L123.96-1.76L128.36-1.76Q131.64-1.76 133.94-2.86Q136.24-3.96 137.72-5.72Q139.20-7.48 139.88-9.66Q140.56-11.84 140.56-14L140.56-14Q140.56-16.40 139.76-18.62Q138.96-20.84 137.42-22.54Q135.88-24.24 133.60-25.24Q131.32-26.24 128.36-26.24L128.36-26.24L123.96-26.24Z M156.28-20.44L156.28-20.44Q159.20-20.44 160.80-19.62Q162.40-18.80 163.14-17.48Q163.88-16.16 164-14.44Q164.12-12.72 164.12-10.92L164.12-10.92L164.12 0L160.88 0L160.88-1.96Q159.72-0.84 157.92-0.18Q156.12 0.48 154.32 0.48L154.32 0.48Q152.60 0.48 151.28-0.12Q149.96-0.72 149.08-1.68Q148.20-2.64 147.76-3.84Q147.32-5.04 147.32-6.28L147.32-6.28Q147.32-7.56 147.80-8.84Q148.28-10.12 149.24-11.14Q150.20-12.16 151.60-12.80Q153-13.44 154.80-13.44L154.80-13.44Q156.60-13.44 158.22-12.74Q159.84-12.04 160.88-10.76L160.88-10.76L160.88-12.48Q160.88-15.76 159.90-17.36Q158.92-18.96 156.32-18.96L156.32-18.96Q155.20-18.96 154.36-18.68Q153.52-18.40 152.86-17.90Q152.20-17.40 151.64-16.66Q151.08-15.92 150.52-15L150.52-15L148.44-17.08Q149-17.68 149.62-18.28Q150.24-18.88 151.14-19.36Q152.04-19.84 153.28-20.14Q154.52-20.44 156.28-20.44ZM160.88-4.84L160.88-7.92Q160.68-8.40 160.30-9.04Q159.92-9.68 159.32-10.28Q158.72-10.88 157.88-11.30Q157.04-11.72 155.88-11.72L155.88-11.72Q154.72-11.72 153.76-11.26Q152.80-10.80 152.14-10.06Q151.48-9.32 151.12-8.32Q150.76-7.32 150.76-6.24L150.76-6.24Q150.76-4.96 151.22-4.02Q151.68-3.08 152.40-2.42Q153.12-1.76 154-1.44Q154.88-1.12 155.68-1.12L155.68-1.12Q156.44-1.12 157.22-1.40Q158-1.68 158.70-2.18Q159.40-2.68 159.96-3.36Q160.52-4.04 160.88-4.84L160.88-4.84Z M174.72 0L174.72-28L171.32-28L171.32 0L174.72 0Z M189.28-20.44L189.28-20.44Q192.20-20.44 193.80-19.62Q195.40-18.80 196.14-17.48Q196.88-16.16 197-14.44Q197.12-12.72 197.12-10.92L197.12-10.92L197.12 0L193.88 0L193.88-1.96Q192.72-0.84 190.92-0.18Q189.12 0.48 187.32 0.48L187.32 0.48Q185.60 0.48 184.28-0.12Q182.96-0.72 182.08-1.68Q181.20-2.64 180.76-3.84Q180.32-5.04 180.32-6.28L180.32-6.28Q180.32-7.56 180.80-8.84Q181.28-10.12 182.24-11.14Q183.20-12.16 184.60-12.80Q186-13.44 187.80-13.44L187.80-13.44Q189.60-13.44 191.22-12.74Q192.84-12.04 193.88-10.76L193.88-10.76L193.88-12.48Q193.88-15.76 192.90-17.36Q191.92-18.96 189.32-18.96L189.32-18.96Q188.20-18.96 187.36-18.68Q186.52-18.40 185.86-17.90Q185.20-17.40 184.64-16.66Q184.08-15.92 183.52-15L183.52-15L181.44-17.08Q182-17.68 182.62-18.28Q183.24-18.88 184.14-19.36Q185.04-19.84 186.28-20.14Q187.52-20.44 189.28-20.44ZM193.88-4.84L193.88-7.92Q193.68-8.40 193.30-9.04Q192.92-9.68 192.32-10.28Q191.72-10.88 190.88-11.30Q190.04-11.72 188.88-11.72L188.88-11.72Q187.72-11.72 186.76-11.26Q185.80-10.80 185.14-10.06Q184.48-9.32 184.12-8.32Q183.76-7.32 183.76-6.24L183.76-6.24Q183.76-4.96 184.22-4.02Q184.68-3.08 185.40-2.42Q186.12-1.76 187-1.44Q187.88-1.12 188.68-1.12L188.68-1.12Q189.44-1.12 190.22-1.40Q191-1.68 191.70-2.18Q192.40-2.68 192.96-3.36Q193.52-4.04 193.88-4.84L193.88-4.84Z M207.72 0L207.72-28L204.32-28L204.32 0L207.72 0Z"/></g>
</svg>
</g><g opacity="1" transform="rotate(0 259.0338 164.6011)">
<svg width="2" height="112" x="259.0338" y="164.6011" version="1.1" preserveAspectRatio="none" viewBox="0 0 2 112">
  <defs><rect x="0" y="0" width="2" height="112" rx="0px" ry="0px" id="id-tBXipXk0b1733137312028"></rect></defs><use class="companyName shapeStroke-str" style="stroke-width:0;" xlink:href="#id-tBXipXk0b1733137312028"></use>
</svg>
</g></svg></svg>